<?xml version="1.0" encoding="UTF-8"?>
<svg id="Capa_2" data-name="Capa 2" xmlns="http://www.w3.org/2000/svg" viewBox="0 0 332.11 297.8">
  <defs>
    <style>
      .cls-1 {
        fill: #0b9eda;
      }

      .cls-2 {
        fill: #75c044;
      }
    </style>
  </defs>
  <g id="Layer_1" data-name="Layer 1">
    <g>
      <path class="cls-2" d="M88.77,196.59c-4.95,0-9.16,3.21-10.68,7.66H45.53c-21.1,0-38.26-17.16-38.26-38.26s17.16-38.26,38.26-38.26h9.05c2.01,0,3.63-1.63,3.63-3.63s-1.63-3.63-3.63-3.63h-9.05C20.42,120.46,0,140.88,0,165.98s20.42,45.53,45.53,45.53h32.56c1.52,4.45,5.73,7.66,10.68,7.66,6.23,0,11.29-5.06,11.29-11.29s-5.06-11.29-11.29-11.29Zm0,16.77c-3.02,0-5.48-2.46-5.48-5.48s2.46-5.48,5.48-5.48,5.48,2.46,5.48,5.48-2.46,5.48-5.48,5.48Z"/>
      <path class="cls-2" d="M135.92,165.82s-.04-.04-.07-.06l-44.08-36.58c.48-1.25,.75-2.6,.75-4.02,0-6.23-5.06-11.29-11.29-11.29s-11.29,5.06-11.29,11.29,5.06,11.29,11.29,11.29c2.16,0,4.18-.62,5.9-1.68l44.04,36.54c.92,.82,23.51,21.23,23.51,45.37v33.34c0,22.33-18.17,40.51-40.51,40.51s-40.5-18.17-40.5-40.51v-1.34c4.45-1.52,7.66-5.73,7.66-10.68,0-6.23-5.06-11.29-11.29-11.29s-11.29,5.06-11.29,11.29c0,4.95,3.21,9.16,7.66,10.68v1.34c0,26.34,21.43,47.77,47.77,47.77s47.77-21.43,47.77-47.77v-33.34c0-27.86-24.96-49.94-26.02-50.87Zm-60.17-40.66c0-3.02,2.46-5.48,5.48-5.48s5.48,2.46,5.48,5.48-2.46,5.48-5.48,5.48-5.48-2.46-5.48-5.48Zm-11.2,112.85c0-3.02,2.46-5.48,5.48-5.48s5.48,2.46,5.48,5.48-2.46,5.48-5.48,5.48-5.48-2.46-5.48-5.48Z"/>
      <path class="cls-1" d="M151.16,163.47c-.83,0-1.67-.29-2.36-.87-.32-.27-7.81-6.78-7.81-15.27,0-9.89,9.37-18.53,13.23-21.67V34.84c0-15.2-12.37-27.57-27.57-27.57s-27.57,12.37-27.57,27.57c0,9.84-8.01,17.84-17.84,17.84-2.01,0-3.63-1.63-3.63-3.63s1.63-3.63,3.63-3.63c5.83,0,10.58-4.75,10.58-10.58C91.81,15.63,107.44,0,126.65,0s34.84,15.63,34.84,34.84V127.44c0,1.16-.55,2.25-1.49,2.93-3.26,2.4-11.74,10.12-11.74,16.96,0,5.1,5.21,9.7,5.27,9.75,1.52,1.3,1.7,3.6,.4,5.12-.72,.84-1.74,1.27-2.76,1.27Z"/>
      <path class="cls-1" d="M141.29,115.98c-.45-.21-11.01-5.22-11.01-18.29V46.93c5.2-1.56,9-6.39,9-12.09,0-6.97-5.67-12.63-12.63-12.63s-12.63,5.67-12.63,12.63c0,5.7,3.8,10.53,9,12.09v50.75c0,17.88,14.66,24.64,15.29,24.92,.48,.21,.98,.32,1.48,.32,1.38,0,2.7-.8,3.3-2.14,.83-1.82,.02-3.97-1.8-4.8Zm-21.46-81.14c0-3.76,3.06-6.82,6.82-6.82s6.82,3.06,6.82,6.82-3.06,6.82-6.82,6.82-6.82-3.06-6.82-6.82Z"/>
      <path class="cls-1" d="M135.5,225.96c1.89-.18,3.27-1.87,3.27-3.77v-12.79c0-23.37-19.01-42.38-42.4-42.38l-7.98,.03c-18.9,0-35.35-12.88-40.24-30.7-.45-1.64-1.94-2.77-3.64-2.7-.03,0-.06,0-.1,0-2.27,.11-3.9,2.29-3.3,4.48,5.7,20.99,25.05,36.17,47.29,36.17l7.98-.03c19.37,0,35.12,15.75,35.12,35.12v12.95c0,2.12,1.82,3.82,3.99,3.61Z"/>
      <path class="cls-1" d="M33.15,110.77c0-15.56,9.13-29.82,23.26-36.34,1.76-.81,2.66-2.93,1.92-4.72-1.32-3.2-1.99-6.61-1.99-10.12,0-14.57,11.81-26.43,26.36-26.51,1.88-.01,3.57-1.36,3.77-3.24,.23-2.18-1.48-4.03-3.61-4.03-18.63,0-33.78,15.15-33.78,33.78,0,3.32,.47,6.57,1.41,9.7-15.04,8.24-24.6,24.18-24.6,41.48,0,.97,.03,1.94,.09,2.9,.15,2.32,2.4,3.88,4.62,3.2,.02,0,.05-.01,.07-.02,1.58-.48,2.66-1.95,2.56-3.59-.05-.83-.08-1.66-.08-2.49Z"/>
      <path class="cls-1" d="M48.79,112.2c5.06-15.29,18.68-26.4,34.7-28.3,1.6,4.68,6.19,7.99,11.48,7.61,5.63-.39,10.19-5.06,10.47-10.7,.32-6.48-4.86-11.86-11.28-11.86-4.95,0-9.15,3.2-10.67,7.64-19.19,1.94-35.58,15.11-41.61,33.36-.78,2.36,.99,4.79,3.48,4.74,.03,0,.07,0,.1,0,1.53-.04,2.85-1.04,3.33-2.49Zm45.37-37.43c3.02,0,5.48,2.46,5.48,5.48s-2.46,5.48-5.48,5.48-5.48-2.46-5.48-5.48,2.46-5.48,5.48-5.48Z"/>
      <path class="cls-2" d="M31.33,232.67c0-2.04-1.71-3.62-3.75-3.63-10.39-.06-18.83-8.55-18.83-18.97,0-1.75,.24-3.47,.7-5.12,.34-1.2-.01-2.49-.88-3.39l-.05-.06c-1.94-2.01-5.32-1.15-6.07,1.54-.63,2.27-.96,4.63-.96,7.03,0,13.27,9.91,24.28,22.71,26,1.55,20.64,17.13,37.41,37.2,40.81,2.84,.48,5.01-2.44,3.83-5.06-.01-.03-.02-.05-.03-.08-.48-1.08-1.49-1.84-2.66-2.04-17.69-3.04-31.2-18.48-31.2-37.03Z"/>
      <path class="cls-2" d="M119.77,255c2.25,1.77,5.17,2.71,8.32,2.34,5.23-.62,9.41-4.92,9.88-10.17,.61-6.79-4.82-12.49-11.52-12.33-4.34,.1-8.17,2.86-10,6.79-1.21,2.62-1.22,5.07-.65,7.29-8.1,5.08-18.84,11.35-28.53,15.77-2.04,.93-2.73,3.5-1.43,5.33,.01,.02,.03,.04,.04,.06,1,1.4,2.85,1.9,4.41,1.19,10.69-4.84,21.91-11.51,29.47-16.27Zm6.96-14.35c3.02,0,5.48,2.46,5.48,5.48s-2.46,5.48-5.48,5.48-5.48-2.46-5.48-5.48,2.46-5.48,5.48-5.48Z"/>
      <path class="cls-2" d="M232.06,207.88c0,6.23,5.06,11.29,11.29,11.29,4.95,0,9.16-3.21,10.68-7.66h32.56c25.1,0,45.53-20.42,45.53-45.53,0-25.1-20.42-45.53-45.53-45.53h-9.05c-2.01,0-3.63,1.63-3.63,3.63s1.63,3.63,3.63,3.63h9.05c21.1,0,38.26,17.16,38.26,38.26,0,21.1-17.16,38.26-38.26,38.26h-32.56c-1.52-4.45-5.73-7.66-10.68-7.66-6.23,0-11.29,5.06-11.29,11.29Zm5.81,0c0-3.02,2.46-5.48,5.48-5.48,3.02,0,5.48,2.46,5.48,5.48s-2.46,5.48-5.48,5.48-5.48-2.46-5.48-5.48Z"/>
      <path class="cls-2" d="M170.17,216.69v33.34c0,26.34,21.43,47.77,47.77,47.77s47.77-21.43,47.77-47.77v-1.34c4.45-1.52,7.66-5.73,7.66-10.68,0-6.23-5.06-11.29-11.29-11.29-6.23,0-11.29,5.06-11.29,11.29,0,4.95,3.21,9.16,7.66,10.68v1.34c0,22.33-18.17,40.51-40.5,40.51-22.33,0-40.51-18.17-40.51-40.51v-33.34c0-24.14,22.58-44.55,23.51-45.37l44.04-36.54c1.72,1.06,3.73,1.68,5.9,1.68,6.23,0,11.29-5.06,11.29-11.29,0-6.23-5.06-11.29-11.29-11.29-6.23,0-11.29,5.06-11.29,11.29,0,1.42,.27,2.77,.75,4.02l-44.08,36.58s-.05,.04-.07,.06c-1.06,.93-26.02,23.01-26.02,50.87Zm80.71-86.05c-3.02,0-5.48-2.46-5.48-5.48,0-3.02,2.46-5.48,5.48-5.48s5.48,2.46,5.48,5.48c0,3.02-2.46,5.48-5.48,5.48Zm11.2,112.85c-3.02,0-5.48-2.46-5.48-5.48,0-3.02,2.46-5.48,5.48-5.48s5.48,2.46,5.48,5.48-2.46,5.48-5.48,5.48Z"/>
      <path class="cls-1" d="M180.96,163.47c.83,0,1.67-.29,2.36-.87,.32-.27,7.81-6.78,7.81-15.27,0-9.89-9.37-18.53-13.23-21.67V34.84c0-15.2,12.37-27.57,27.57-27.57,15.2,0,27.57,12.37,27.57,27.57,0,9.84,8.01,17.84,17.84,17.84,2.01,0,3.63-1.63,3.63-3.63s-1.63-3.63-3.63-3.63c-5.83,0-10.58-4.75-10.58-10.58,0-19.21-15.63-34.84-34.84-34.84-19.21,0-34.84,15.63-34.84,34.84V127.44c0,1.16,.55,2.25,1.49,2.93,3.26,2.4,11.74,10.12,11.74,16.96,0,5.1-5.21,9.7-5.27,9.75-1.52,1.3-1.7,3.6-.4,5.12,.72,.84,1.74,1.27,2.76,1.27Z"/>
      <path class="cls-1" d="M189.03,120.79c.61,1.34,1.92,2.14,3.3,2.14,.49,0,1-.1,1.48-.32,.62-.28,15.29-7.04,15.29-24.92V46.93c5.2-1.56,9-6.39,9-12.09,0-6.97-5.67-12.63-12.63-12.63s-12.63,5.67-12.63,12.63c0,5.7,3.8,10.53,9,12.09v50.75c0,13.07-10.56,18.09-11.01,18.29-1.81,.84-2.62,2.99-1.8,4.8Zm16.44-79.13c-3.76,0-6.82-3.06-6.82-6.82s3.06-6.82,6.82-6.82c3.76,0,6.82,3.06,6.82,6.82s-3.06,6.82-6.82,6.82Z"/>
      <path class="cls-1" d="M196.61,225.96c-1.89-.18-3.27-1.87-3.27-3.77v-12.79c0-23.37,19.01-42.38,42.4-42.38l7.98,.03c18.9,0,35.35-12.88,40.24-30.7,.45-1.64,1.94-2.77,3.64-2.7,.03,0,.06,0,.1,0,2.27,.11,3.9,2.29,3.3,4.48-5.7,20.99-25.05,36.17-47.29,36.17l-7.98-.03c-19.37,0-35.12,15.75-35.12,35.12v12.95c0,2.12-1.82,3.82-3.99,3.61Z"/>
      <path class="cls-1" d="M298.97,110.77c0-15.56-9.13-29.82-23.26-36.34-1.76-.81-2.66-2.93-1.92-4.72,1.32-3.2,1.99-6.61,1.99-10.12,0-14.57-11.81-26.43-26.36-26.51-1.88-.01-3.57-1.36-3.77-3.24-.23-2.18,1.48-4.03,3.61-4.03,18.63,0,33.78,15.15,33.78,33.78,0,3.32-.47,6.57-1.41,9.7,15.04,8.24,24.6,24.18,24.6,41.48,0,.97-.03,1.94-.09,2.9-.15,2.32-2.4,3.88-4.62,3.2-.02,0-.05-.01-.07-.02-1.58-.48-2.66-1.95-2.56-3.59,.05-.83,.08-1.66,.08-2.49Z"/>
      <path class="cls-1" d="M286.65,114.7s.06,0,.1,0c2.49,.06,4.26-2.37,3.48-4.74-6.02-18.24-22.41-31.42-41.61-33.36-1.52-4.44-5.73-7.64-10.67-7.64-6.41,0-11.59,5.37-11.28,11.86,.28,5.64,4.84,10.3,10.47,10.7,5.29,.37,9.88-2.94,11.48-7.61,16.02,1.91,29.64,13.01,34.7,28.3,.48,1.45,1.8,2.46,3.33,2.49Zm-43.22-34.44c0,3.02-2.46,5.48-5.48,5.48s-5.48-2.46-5.48-5.48,2.46-5.48,5.48-5.48,5.48,2.46,5.48,5.48Z"/>
      <path class="cls-2" d="M300.78,232.67c0-2.04,1.71-3.62,3.75-3.63,10.39-.06,18.83-8.55,18.83-18.97,0-1.75-.24-3.47-.7-5.12-.34-1.2,.01-2.49,.88-3.39l.05-.06c1.94-2.01,5.32-1.15,6.07,1.54,.63,2.27,.96,4.63,.96,7.03,0,13.27-9.91,24.28-22.71,26-1.55,20.64-17.13,37.41-37.2,40.81-2.84,.48-5.01-2.44-3.83-5.06,.01-.03,.02-.05,.03-.08,.48-1.08,1.49-1.84,2.66-2.04,17.69-3.04,31.2-18.48,31.2-37.03Z"/>
      <path class="cls-2" d="M241.82,271.27c1.57,.71,3.42,.21,4.41-1.19,.01-.02,.03-.04,.04-.06,1.3-1.83,.61-4.4-1.43-5.33-9.69-4.42-20.43-10.68-28.53-15.77,.57-2.22,.56-4.67-.65-7.29-1.82-3.94-5.66-6.69-10-6.79-6.7-.16-12.13,5.54-11.52,12.33,.47,5.25,4.65,9.55,9.88,10.17,3.15,.37,6.07-.57,8.32-2.34,7.56,4.76,18.78,11.42,29.47,16.27Zm-30.95-25.14c0,3.02-2.46,5.48-5.48,5.48s-5.48-2.46-5.48-5.48,2.46-5.48,5.48-5.48,5.48,2.46,5.48,5.48Z"/>
    </g>
  </g>
</svg>