<svg xmlns="http://www.w3.org/2000/svg" viewBox="0 0 417.89 348.28"><defs><style>.cls-1{fill:#09b7ad;fill-rule:evenodd;}</style></defs><g id="Capa_2" data-name="Capa 2"><g id="Capa_1-2" data-name="Capa 1"><path class="cls-1" d="M117.46,348c-23.4-5.6-40.5-16.2-63-38.6-15.8-15.8-25.8-29.6-36.8-50.9-14.2-27.7-18.6-47-17.5-77.4.5-14.5,1.4-21.4,4-31.3,12-45,40-85.3,79.5-114.3,13-9.5,38.7-22.5,54.1-27.2,21.4-6.6,34-8.3,61.6-8.3,21.8,0,26.6.4,40.1,3.3,53.8,11.5,104.3,39.1,140.5,76.8,18.6,19.3,32.5,40.1,36.2,54.1,2.3,8.8,2.3,29.4,0,37.2-3.6,12-15.9,20.3-25.4,17.2-8.2-2.7-14.1-12.3-21.7-35.3-3.9-11.7-13-30.5-20.2-41.3-11.6-17.4-37.2-40.4-58.7-52.6-17.5-10-45.4-20.4-64-23.9-13.6-2.6-43.2-2.7-56.1-.2-36.6,7-73.6,28.3-96.3,55.3-9.8,11.6-27.7,40.2-35.9,57.3-13.5,28.4-17.7,62.6-11,89.3,3.3,12.8,11.5,30.5,19.9,43C63.56,305,90,326.8,114,335.7c6.4,2.4,11.7,3.2,23.5,3.7,12.9.5,16.8.2,25-2a142.23,142.23,0,0,0,17-5.9c4-1.8,7.9-3.2,8.6-3.2,2.2,0-5.7,7.6-11.2,10.9-10.6,6.3-20.4,8.5-39.4,8.9C128.06,348.4,118.86,348.3,117.46,348Zm22.3-24.3c-7.8-1.3-23.2-7.2-31.8-12.3-13.8-8.1-28.2-23.5-36-38.6a128.75,128.75,0,0,1-9.3-24.2c-2.7-10.3-3.3-15.4-3.4-30.8-.1-15.8.3-19.9,2.8-28.6,5.6-19.6,16.6-37.5,32.7-53.5,19.2-19,40-30.4,67.7-37,10.7-2.5,18.3-3.4,34.6-3.9,30-.9,45.7,2.4,70.6,15.1,15,7.6,20.4,11.2,35,22.8,22,17.6,37.6,39.1,55.5,76.1q22.35,46.5,15.2,71.3c-7.4,25.2-32.7,40.2-41.7,24.6-3.1-5.3-4.9-22-4.9-45.2,0-23.5-2.2-38.4-8.5-56.5-8.5-24.5-21.5-42.9-42.4-60-11.8-9.6-17.8-13.1-32.6-18.8-18.2-7-30.6-9.6-46.9-9.6a130.49,130.49,0,0,0-90.3,35.2c-19.5,17.9-31.5,44.4-33.1,72.9-1.5,27.4,7.2,50.4,26.8,71,12.7,13.3,25.7,21.7,41.8,26.9,4.7,1.5,8.5,3,8.5,3.3-.1.8-5.7.6-10.3-.2Zm-16-23.1c-8.6-4.9-19.8-17.3-24.6-27.1-6-12.4-8.2-22.7-7.3-35.3,1.8-27.3,15.9-52.3,37.5-66.5,15-9.8,28.1-14.4,45.7-15.6,20.1-1.5,44.8,7.3,60.8,21.6,11.6,10.3,21.8,27.9,26.6,45.6,2.7,10,2.2,24.9-.9,31a13.14,13.14,0,0,1-12.1,6.8c-5.5,0-13.2-5.2-17-11.4-2.9-4.6-3.9-8.6-5.4-20.4-1-8-3-17.7-4.5-21.4-5.7-14.5-15.3-24.4-29.5-30.3-6.5-2.7-10.7-3.5-21.4-3.9-11.3-.5-14.6-.1-21.6,2.2-32.3,10.8-55.2,46.5-49.8,77.9,1.9,10.9,7.4,24.4,12.9,31.8a107.9,107.9,0,0,0,11.3,12.1c3.9,3.7,6.9,6.7,6.5,6.7-2.5-1.2-4.9-2.5-7.2-3.8Zm21.3-27.6c-7.5-3.7-11.2-8.3-13.8-16.7-2.4-8-2.2-14.4.6-20.9,6.3-14.5,25.1-21.7,39.1-14.9,18.1,8.8,22.5,34.6,8.2,47.9C170,277.1,156.86,278.9,145.06,273Z"/></g></g></svg>