<svg xmlns="http://www.w3.org/2000/svg" viewBox="0 0 1761.5 357.75"><defs><style>.cls-1,.cls-2,.cls-3,.cls-4,.cls-8{isolation:isolate;}.cls-2,.cls-3,.cls-4{font-size:134.23px;}.cls-2,.cls-3,.cls-4,.cls-8{fill:#0f172a;font-family:Inter-Bold, Inter;font-weight:700;}.cls-2{letter-spacing:0.04em;}.cls-3{letter-spacing:0.01em;}.cls-4{letter-spacing:0.03em;}.cls-5{letter-spacing:0em;}.cls-6{letter-spacing:0.04em;}.cls-7{fill:#09b7ad;fill-rule:evenodd;}.cls-8{font-size:88.21px;letter-spacing:0.04em;}</style></defs><g id="Capa_2" data-name="Capa 2"><g id="Capa_1-2" data-name="Capa 1"><g id="Capa_1-2-2" data-name="Capa 1-2"><g class="cls-1"><text class="cls-2" transform="translate(505.69 128.77) scale(0.69 1)">NEUR</text><text class="cls-3" transform="translate(772.98 128.77) scale(0.69 1)">O</text><text class="cls-2" transform="translate(845.9 128.77) scale(0.69 1)">TECNO</text><text class="cls-3" transform="translate(1192.28 128.77) scale(0.69 1)">L</text><text class="cls-2" transform="translate(1245.83 128.77) scale(0.69 1)">OGÍ</text><text class="cls-4" transform="translate(1425.42 128.77) scale(0.69 1)">A</text><text class="cls-2" transform="translate(1496.62 128.77) scale(0.69 1)">S<tspan class="cls-5" x="93.13" y="0">,</tspan><tspan class="cls-6" x="134.45" y="0" xml:space="preserve"> Inc</tspan></text></g><path class="cls-7" d="M117.41,357.38c-23.36-5.64-40.52-16.15-63-38.59C38.58,303,28.62,289.18,17.66,267.86c-14.23-27.7-18.6-47-17.5-77.36C.68,176,1.57,169.13,4.21,159.2c12-45,40-85.31,79.52-114.32,13-9.5,38.74-22.5,54.07-27.24,21.37-6.58,34-8.26,61.61-8.26,21.83,0,26.62.41,40.14,3.29,53.79,11.52,104.31,39.15,140.53,76.84,18.57,19.33,32.46,40.09,36.19,54.12,2.34,8.77,2.32,29.37,0,37.19-3.62,12-15.86,20.34-25.36,17.2-8.21-2.71-14.07-12.27-21.67-35.32-3.86-11.69-13-30.47-20.23-41.29C337.39,104,311.78,81,290.31,68.78c-17.51-10-45.37-20.36-64-23.89-13.58-2.57-43.2-2.66-56.12-.17-36.55,7-73.59,28.32-96.34,55.34C64.05,111.68,46.18,140.3,38,157.38,24.46,185.75,20.25,220,27,246.73c3.26,12.8,11.47,30.52,19.93,43,16.83,24.79,43.25,46.6,67.25,55.53,6.43,2.4,11.65,3.21,23.53,3.72,12.92.54,16.77.23,25-2a147.72,147.72,0,0,0,17-5.87c4-1.77,7.88-3.22,8.62-3.22,2.18,0-5.66,7.58-11.21,10.86-10.63,6.28-20.36,8.48-39.4,8.91C128,357.83,118.81,357.74,117.41,357.38Zm22.25-24.25c-7.81-1.31-23.15-7.25-31.84-12.33-13.79-8.09-28.18-23.55-36-38.65A139.06,139.06,0,0,1,62.48,258c-2.7-10.28-3.27-15.42-3.4-30.78-.12-15.75.28-19.92,2.78-28.6,5.65-19.63,16.59-37.54,32.66-53.49,19.16-19,40-30.41,67.68-37,10.67-2.53,18.27-3.39,34.6-3.9,30-.94,45.73,2.43,70.61,15.11,15,7.63,20.44,11.22,35,22.84,22,17.63,37.65,39.06,55.53,76.12q22.41,46.5,15.23,71.34c-7.35,25.25-32.66,40.21-41.7,24.65-3.1-5.34-4.91-22-4.91-45.2,0-23.52-2.25-38.44-8.54-56.49-8.51-24.47-21.54-42.87-42.4-60C263.85,143,257.86,139.5,243,133.75c-18.25-7-30.61-9.56-46.92-9.57a130.7,130.7,0,0,0-90.29,35.2c-19.46,17.89-31.5,44.42-33.08,72.89-1.52,27.45,7.16,50.39,26.84,71,12.73,13.34,25.71,21.69,41.81,26.91,4.67,1.5,8.5,3,8.5,3.26,0,.66-5.57.47-10.17-.3Zm-16-23.18c-8.61-4.93-19.82-17.29-24.6-27.09-6-12.41-8.19-22.68-7.35-35.31,1.81-27.27,15.9-52.3,37.48-66.51,15-9.85,28.12-14.37,45.74-15.65,20.09-1.46,44.78,7.3,60.78,21.56,11.6,10.32,21.82,27.88,26.56,45.6,2.68,10,2.24,24.87-.93,31a13.27,13.27,0,0,1-12.09,6.83c-5.47,0-13.2-5.22-17-11.44-2.86-4.61-3.89-8.56-5.36-20.35-1-8.05-3-17.7-4.48-21.44-5.72-14.5-15.32-24.36-29.47-30.27-6.54-2.73-10.67-3.48-21.45-3.91-11.26-.45-14.65-.11-21.61,2.22-32.32,10.81-55.18,46.53-49.8,77.86,1.87,10.87,7.37,24.39,12.93,31.78A116.63,116.63,0,0,0,124.29,307c3.92,3.66,6.87,6.66,6.52,6.66a59.78,59.78,0,0,1-7.12-3.66ZM145,282.38c-7.48-3.72-11.22-8.26-13.76-16.7-2.4-8-2.2-14.37.65-20.9,6.34-14.54,25.11-21.7,39.11-14.9,18.09,8.76,22.53,34.58,8.23,47.87C169.88,286.47,156.73,288.26,145,282.38Z"/><text class="cls-8" transform="translate(1165.43 275.09) scale(0.87 1)">Desde el 2003</text></g></g></g></svg>