<svg xmlns="http://www.w3.org/2000/svg" viewBox="0 0 1500.32 348.34"><defs><style>.cls-1{isolation:isolate;font-size:92px;letter-spacing:0.04em;}.cls-1,.cls-6{fill:#0f172a;font-family:Inter-Bold, Inter;font-weight:700;}.cls-2{letter-spacing:0.01em;}.cls-3{letter-spacing:0.01em;}.cls-4{letter-spacing:0.03em;}.cls-5{fill:#09b7ad;fill-rule:evenodd;}.cls-6{font-size:68.14px;letter-spacing:0.04em;}</style></defs><g id="Capa_2" data-name="Capa 2"><g id="Capa_1-2" data-name="Capa 1"><text class="cls-1" transform="translate(445.19 173.23)">NEUR<tspan class="cls-2" x="267.29" y="0">O</tspan><tspan x="340.21" y="0">TECNO</tspan><tspan class="cls-3" x="686.59" y="0">L</tspan><tspan x="740.14" y="0">OGÍ</tspan><tspan class="cls-4" x="919.74" y="0">A</tspan><tspan x="990.93" y="0">S</tspan></text><path class="cls-5" d="M117.42,348c-23.36-5.64-40.52-16.15-63-38.59-15.83-15.79-25.79-29.61-36.75-50.93-14.23-27.7-18.6-47-17.5-77.36.52-14.51,1.41-21.37,4.05-31.3,12-45,40-85.31,79.52-114.32C96.73,26,122.48,13,137.81,8.26,159.18,1.68,171.77,0,199.42,0c21.83,0,26.62.41,40.14,3.29,53.79,11.52,104.31,39.15,140.53,76.84,18.57,19.33,32.46,40.09,36.19,54.12,2.34,8.77,2.32,29.37,0,37.19-3.62,12-15.86,20.34-25.36,17.2-8.21-2.71-14.07-12.27-21.67-35.32-3.86-11.69-13-30.47-20.23-41.29C337.4,94.6,311.79,71.63,290.32,59.4c-17.51-10-45.37-20.36-64-23.89-13.58-2.57-43.2-2.66-56.12-.17-36.55,7-73.59,28.32-96.34,55.34C64.06,102.3,46.19,130.92,38,148c-13.53,28.37-17.74,62.65-11,89.35,3.26,12.8,11.47,30.52,19.93,43,16.83,24.79,43.25,46.6,67.25,55.53,6.43,2.4,11.65,3.21,23.53,3.72,12.92.54,16.77.23,25-2a148.26,148.26,0,0,0,17-5.87c4-1.77,7.88-3.22,8.62-3.22,2.18,0-5.66,7.58-11.21,10.86-10.63,6.28-20.36,8.48-39.4,8.91C128,348.45,118.82,348.36,117.42,348Zm22.25-24.25c-7.81-1.31-23.15-7.25-31.84-12.33-13.79-8.09-28.18-23.55-36-38.65a138.91,138.91,0,0,1-9.34-24.16c-2.7-10.28-3.27-15.42-3.4-30.78-.12-15.75.28-19.92,2.78-28.6,5.65-19.63,16.59-37.54,32.66-53.49,19.16-19,40-30.41,67.68-37,10.67-2.53,18.27-3.39,34.6-3.9,30-.94,45.73,2.43,70.61,15.11,15,7.63,20.44,11.22,35,22.84,22,17.63,37.65,39.06,55.53,76.12,14.94,31,20,54.82,15.23,71.34-7.35,25.25-32.66,40.21-41.7,24.65-3.1-5.34-4.91-22-4.91-45.2,0-23.52-2.25-38.44-8.54-56.49-8.51-24.47-21.54-42.87-42.4-60-11.77-9.63-17.76-13.09-32.65-18.84-18.25-7-30.61-9.56-46.92-9.57A130.67,130.67,0,0,0,105.77,150c-19.46,17.89-31.5,44.42-33.08,72.89-1.52,27.45,7.16,50.39,26.84,71,12.73,13.34,25.71,21.69,41.81,26.91,4.67,1.5,8.5,3,8.5,3.26C149.84,324.72,144.27,324.53,139.67,323.76Zm-16-23.18c-8.61-4.93-19.82-17.29-24.6-27.09-6-12.41-8.19-22.68-7.35-35.31,1.81-27.27,15.9-52.3,37.48-66.51,15-9.85,28.12-14.37,45.74-15.65,20.09-1.46,44.78,7.3,60.78,21.56,11.6,10.32,21.82,27.88,26.56,45.6,2.68,10,2.24,24.87-.93,31A13.29,13.29,0,0,1,249.26,261c-5.47,0-13.2-5.22-17-11.44-2.86-4.61-3.89-8.56-5.36-20.35-1-8.05-3-17.7-4.48-21.44-5.72-14.5-15.32-24.36-29.47-30.27-6.54-2.73-10.67-3.48-21.45-3.91-11.26-.45-14.65-.11-21.61,2.22-32.32,10.81-55.18,46.53-49.8,77.86,1.87,10.87,7.37,24.39,12.93,31.78a117.57,117.57,0,0,0,11.28,12.13c3.92,3.66,6.87,6.66,6.52,6.66A59.89,59.89,0,0,1,123.7,300.58ZM145,273c-7.48-3.72-11.22-8.26-13.76-16.7-2.4-8-2.2-14.37.65-20.9C138.23,220.86,157,213.7,171,220.5c18.09,8.76,22.53,34.58,8.23,47.87C169.89,277.09,156.74,278.88,145,273Z"/><text/><text class="cls-6" transform="translate(451.01 268.44) scale(1.13 1)">DESDE 2003</text></g></g></svg>